<svg version="1.0" xmlns="http://www.w3.org/2000/svg" width="341.333" height="341.333" viewBox="0 0 256 256"><path fill="#cccccc" d="M100.8 18.6c-23.7 3.6-46.4 15.7-63.1 33.3-21.5 22.8-32.3 54-29.6 85.5 4 47 37.8 86.2 84.4 97.7 9.9 2.4 29.5 3.5 39.5 2.1 4.1-.6 31.7-7.5 61.3-15.4l53.8-14.3-.5-3c-2.7-13.8-18.7-29.7-35.1-34.7-13-4-19.7-3.3-53 5.7-32.9 8.9-41.8 10.1-53.5 7.1-25.8-6.5-43.4-28.9-43.4-55.1 0-15.6 5.3-28.4 16.4-39.5 14.7-14.7 35.4-20.4 55-14.9 9.8 2.7 16.1 6.2 23.2 12.9 4.9 4.7 5.8 6.1 5.8 9.1 0 4.7-3.3 7.9-8.3 7.9-2 0-3.9-.5-4.2-1.1-.4-.6-1.4.4-2.3 2.3-2.4 4.8-6.1 6.3-10.7 4.4-1.9-.8-3.8-2.2-4.1-3-.9-2.3-8-4.6-14.2-4.6-10.5.1-18.1 4.5-23.2 13.3-10.2 17.8 2.1 39.7 22.4 39.7 7.5 0 63.3-14.7 72.2-19 16.9-8.3 27.4-25.2 27.4-44.4 0-11.1-1.9-17.1-7.9-25.8-23.9-34.7-66.4-52.8-108.3-46.2z"/></svg>